<svg xmlns="http://www.w3.org/2000/svg" viewBox="0.00 0.00 1096.00 391.00" width="1096.00" height="391.00">
  <g fill="#14253F" stroke="none">
    <g transform="scale(0.25)"><g transform="translate(0.000000,1564.000000) scale(0.100000,-0.100000)"><path d="M5677 15620 c-4 -15 -14 -20 -36 -20 -20 0 -34 -7 -41 -20 -9 -18
-21 -20 -100 -20 -79 0 -91 -2 -100 -20 -7 -13 -21 -20 -40 -20 -19 0 -33 -7
-40 -20 -9 -17 -21 -20 -80 -20 -59 0 -71 -3 -80 -20 -7 -13 -21 -20 -40 -20
-19 0 -33 -7 -40 -20 -8 -16 -21 -20 -60 -20 -39 0 -52 -4 -60 -20 -7 -13 -21
-20 -40 -20 -19 0 -33 -7 -40 -20 -8 -16 -21 -20 -60 -20 -39 0 -52 -4 -60
-20 -7 -13 -21 -20 -40 -20 -19 0 -33 -7 -40 -20 -7 -13 -21 -20 -40 -20 -19
0 -33 -7 -40 -20 -8 -16 -21 -20 -60 -20 -39 0 -52 -4 -60 -20 -8 -16 -21 -20
-58 -20 -42 0 -51 -4 -82 -40 -31 -36 -40 -40 -82 -40 -37 0 -50 -4 -58 -20
-7 -13 -21 -20 -40 -20 -19 0 -33 -7 -40 -20 -7 -13 -21 -20 -40 -20 -19 0
-33 -7 -40 -20 -7 -13 -21 -20 -40 -20 -19 0 -33 -7 -40 -20 -7 -13 -21 -20
-40 -20 -19 0 -33 -7 -40 -20 -7 -13 -21 -20 -40 -20 -19 0 -33 -7 -40 -20 -7
-13 -21 -20 -40 -20 -19 0 -33 -7 -40 -20 -7 -13 -21 -20 -40 -20 -19 0 -33
-7 -40 -20 -7 -12 -21 -20 -38 -20 -19 0 -37 -12 -62 -40 -31 -35 -40 -40 -79
-40 -40 0 -48 -5 -101 -60 -37 -38 -66 -60 -80 -60 -14 0 -43 -22 -80 -60 -35
-36 -66 -60 -79 -60 -31 0 -441 -412 -441 -442 0 -14 -16 -37 -40 -58 -26 -23
-40 -44 -40 -60 0 -16 -14 -37 -40 -60 -28 -25 -40 -43 -40 -62 0 -17 -8 -31
-20 -38 -13 -7 -20 -21 -20 -40 0 -19 -7 -33 -20 -40 -16 -8 -20 -21 -20 -60
0 -39 -4 -52 -20 -60 -16 -8 -20 -21 -20 -60 0 -39 -4 -52 -20 -60 -19 -10
-20 -21 -20 -240 0 -219 1 -230 20 -240 13 -7 20 -21 20 -40 0 -19 7 -33 20
-40 16 -8 20 -21 20 -58 0 -42 4 -51 40 -82 31 -27 40 -42 40 -67 0 -41 16
-42 53 -4 21 23 27 39 27 75 0 35 4 48 20 56 14 8 20 21 20 45 0 28 4 35 20
35 16 0 20 -7 20 -35 0 -24 6 -37 20 -45 16 -8 20 -21 20 -60 0 -39 4 -52 20
-60 18 -9 20 -21 20 -100 0 -79 2 -91 20 -100 14 -8 20 -21 20 -45 0 -24 5
-35 14 -35 23 0 29 19 27 86 -2 54 1 64 18 74 14 7 21 21 21 40 0 19 7 33 20
40 18 9 20 21 20 100 0 81 2 90 21 101 18 9 20 18 16 48 -5 42 6 71 28 71 10
0 15 -11 15 -35 0 -24 6 -37 20 -45 18 -9 20 -21 20 -100 0 -78 2 -91 19 -100
12 -6 21 -23 23 -43 3 -28 7 -32 35 -35 24 -2 34 2 43 17 10 19 20 21 120 21
99 0 110 2 120 20 9 17 21 20 80 20 59 0 71 3 80 20 9 18 21 20 100 20 79 0
91 2 100 20 9 17 21 20 80 20 59 0 71 3 80 20 9 17 21 20 80 20 59 0 71 3 80
20 8 16 21 20 60 20 39 0 52 4 60 20 9 17 21 20 80 20 59 0 71 3 80 20 7 13
21 20 40 20 19 0 33 7 40 20 8 16 21 20 60 20 39 0 52 4 60 20 7 13 21 20 40
20 19 0 33 7 40 20 8 16 21 20 60 20 39 0 52 4 60 20 7 13 21 20 40 20 19 0
33 7 40 20 7 13 21 20 40 20 19 0 33 7 40 20 7 13 21 20 40 20 19 0 33 7 40
20 7 13 21 20 40 20 19 0 33 7 40 20 7 13 21 20 40 20 19 0 33 7 40 20 7 12
21 20 38 20 19 0 37 12 62 40 23 26 44 40 60 40 16 0 37 14 60 40 25 28 43 40
62 40 17 0 31 8 38 20 7 13 21 20 40 20 19 0 33 7 40 20 6 12 21 20 36 20 19
0 43 17 84 60 41 43 65 60 84 60 15 0 30 8 36 20 7 12 21 20 38 20 19 0 37 12
62 40 23 26 44 40 60 40 16 0 37 14 60 40 l35 40 107 0 c97 0 108 2 118 20 10
18 21 20 120 20 99 0 110 2 120 20 10 18 21 20 140 20 119 0 130 2 140 20 9
18 21 20 100 20 79 0 91 2 100 20 10 18 21 20 140 20 119 0 130 2 140 20 9 18
21 20 100 20 79 0 91 2 100 20 10 19 21 20 160 20 139 0 150 1 160 20 6 12 21
20 36 20 34 0 124 -90 124 -124 0 -15 8 -30 20 -36 13 -7 20 -21 20 -40 0 -19
7 -33 20 -40 12 -7 20 -21 20 -38 0 -19 12 -37 40 -62 25 -22 40 -44 40 -58 0
-31 91 -122 122 -122 14 0 36 -15 58 -40 23 -26 44 -40 60 -40 16 0 37 -14 60
-40 31 -35 40 -40 80 -40 40 0 49 -5 80 -40 34 -39 36 -40 102 -40 57 0 69 -3
78 -20 9 -17 21 -20 80 -20 59 0 71 -3 80 -20 10 -18 21 -20 120 -20 99 0 110
-2 120 -20 10 -18 21 -20 140 -20 119 0 130 -2 140 -20 10 -19 21 -20 200 -20
179 0 190 -1 200 -20 9 -18 21 -20 100 -20 79 0 91 -2 100 -20 10 -18 21 -20
120 -20 99 0 110 -2 120 -20 9 -17 21 -20 80 -20 59 0 71 -3 80 -20 10 -18 21
-20 120 -20 99 0 110 -2 120 -20 9 -17 21 -20 80 -20 59 0 71 -3 80 -20 10
-18 21 -20 120 -20 98 0 110 -2 120 -19 6 -12 23 -21 43 -23 l32 -3 0 -75 0
-75 -575 -5 c-537 -5 -575 -6 -578 -22 -3 -14 3 -18 27 -18 19 0 38 -8 48 -20
10 -11 30 -20 45 -20 17 0 31 -7 38 -20 8 -16 21 -20 60 -20 39 0 52 -4 60
-20 7 -13 21 -20 40 -20 19 0 33 -7 40 -20 7 -13 21 -20 40 -20 19 0 33 -7 40
-20 7 -13 21 -20 40 -20 19 0 33 -7 40 -20 8 -16 21 -20 58 -20 42 0 51 -4 82
-40 31 -36 40 -40 82 -40 37 0 50 -4 58 -20 7 -13 21 -20 40 -20 19 0 33 -7
40 -20 8 -16 21 -20 60 -20 39 0 52 -4 60 -20 7 -13 21 -20 40 -20 19 0 33 -7
40 -20 7 -13 21 -20 40 -20 19 0 33 -7 40 -20 7 -13 21 -20 40 -20 19 0 33 -7
40 -20 7 -13 21 -20 40 -20 19 0 33 -7 40 -20 7 -13 21 -20 40 -20 19 0 33 -7
40 -20 7 -13 21 -20 40 -20 19 0 33 -7 40 -20 7 -13 21 -20 40 -20 19 0 33 -7
40 -20 7 -12 21 -20 38 -20 19 0 37 -12 62 -40 23 -26 44 -40 60 -40 16 0 37
-14 60 -40 31 -35 40 -40 80 -40 40 0 49 -5 80 -40 23 -26 44 -40 60 -40 16 0
37 -14 60 -40 23 -26 44 -40 60 -40 16 0 37 -14 60 -40 23 -26 44 -40 60 -40
16 0 37 -14 60 -40 22 -26 44 -40 59 -40 15 0 38 -15 60 -39 23 -25 47 -40 66
-43 26 -3 31 -8 35 -38 4 -30 9 -35 34 -38 21 -3 51 -26 107 -83 48 -49 85
-79 98 -79 29 0 401 -372 401 -401 0 -23 48 -79 67 -79 9 0 13 18 13 55 0 44
-4 56 -20 65 -16 8 -20 21 -20 60 0 39 -4 52 -20 60 -16 8 -20 21 -20 60 0 39
-4 52 -20 60 -13 7 -20 21 -20 40 0 19 -7 33 -20 40 -16 8 -20 21 -20 60 0 39
-4 52 -20 60 -13 7 -20 21 -20 40 0 19 -7 33 -20 40 -13 7 -20 21 -20 40 0 19
-7 33 -20 40 -13 7 -20 21 -20 40 0 19 -7 33 -20 40 -13 7 -20 21 -20 40 0 19
-7 33 -20 40 -13 7 -20 21 -20 40 0 19 -7 33 -20 40 -13 7 -20 21 -20 40 0 19
-7 33 -20 40 -13 7 -20 21 -20 40 0 19 -7 33 -20 40 -12 6 -20 21 -20 36 0 19
-17 43 -60 84 -43 41 -60 65 -60 84 0 15 -8 30 -19 36 -12 6 -21 23 -23 43 -3
28 -7 33 -38 37 -30 4 -35 9 -38 34 -3 21 -26 51 -83 107 -51 50 -79 85 -79
99 0 14 -28 49 -79 99 -57 56 -80 86 -83 107 -3 25 -8 30 -38 34 -31 4 -36 9
-40 40 -4 31 -9 36 -40 40 -31 4 -36 9 -40 40 -4 31 -9 36 -40 40 -31 4 -36 9
-40 40 -4 31 -9 36 -40 40 -31 4 -36 9 -40 40 -4 30 -9 35 -34 38 -21 3 -51
26 -107 83 -48 49 -85 79 -98 79 -25 0 -206 174 -196 190 11 18 63 11 75 -10
9 -17 21 -20 80 -20 59 0 71 -3 80 -20 8 -16 21 -20 60 -20 39 0 52 -4 60 -20
9 -18 21 -20 100 -20 79 0 91 -2 100 -20 8 -16 21 -20 60 -20 39 0 52 -4 60
-20 9 -17 21 -20 80 -20 59 0 71 -3 80 -20 8 -16 21 -20 60 -20 39 0 52 -4 60
-20 9 -18 21 -20 100 -20 79 0 91 -2 100 -20 7 -13 21 -20 40 -20 19 0 33 -7
40 -20 9 -18 21 -20 100 -20 95 0 121 12 82 38 -17 11 -22 24 -22 59 0 43 -4
48 -80 123 -53 52 -80 86 -80 101 0 13 -16 37 -39 58 -25 23 -40 47 -43 66 -3
26 -8 31 -38 35 -30 4 -36 9 -38 33 -3 22 -69 94 -293 318 -197 197 -296 289
-310 289 -13 0 -44 24 -79 60 -37 38 -66 60 -80 60 -14 0 -43 22 -80 60 -38
40 -66 60 -81 60 -15 0 -37 15 -59 40 -23 26 -44 40 -60 40 -16 0 -37 14 -60
40 -25 28 -43 40 -62 40 -17 0 -31 8 -38 20 -7 13 -21 20 -40 20 -19 0 -33 7
-40 20 -7 13 -21 20 -40 20 -19 0 -33 7 -40 20 -7 13 -21 20 -40 20 -19 0 -33
7 -40 20 -7 13 -21 20 -40 20 -19 0 -33 7 -40 20 -7 13 -21 20 -40 20 -19 0
-33 7 -40 20 -7 13 -21 20 -40 20 -19 0 -33 7 -40 20 -7 13 -21 20 -40 20 -19
0 -33 7 -40 20 -8 16 -21 20 -58 20 -42 0 -51 4 -82 40 -34 39 -36 40 -102 40
-57 0 -69 3 -78 20 -7 13 -21 20 -40 20 -19 0 -33 7 -40 20 -9 17 -21 20 -80
20 -59 0 -71 3 -80 20 -9 17 -21 20 -80 20 -59 0 -71 3 -80 20 -9 18 -21 20
-100 20 -79 0 -91 2 -100 20 -9 18 -21 20 -100 20 -79 0 -91 2 -100 20 -11 20
-21 20 -600 20 -579 0 -589 0 -600 -20 -9 -18 -21 -20 -100 -20 -79 0 -91 -2
-100 -20 -9 -18 -21 -20 -100 -20 -79 0 -91 -2 -100 -20 -8 -16 -21 -20 -60
-20 -39 0 -52 -4 -60 -20 -9 -17 -21 -20 -80 -20 -59 0 -71 -3 -80 -20 -7 -13
-21 -20 -40 -20 -19 0 -33 -7 -40 -20 -8 -16 -21 -20 -60 -20 -39 0 -52 -4
-60 -20 -7 -13 -21 -20 -40 -20 -19 0 -33 -7 -40 -20 -8 -16 -21 -20 -60 -20
-39 0 -52 -4 -60 -20 -7 -13 -21 -20 -40 -20 -19 0 -33 -7 -40 -20 -8 -16 -21
-20 -58 -20 -42 0 -51 -4 -82 -40 -23 -26 -44 -40 -60 -40 -16 0 -37 -14 -60
-40 -25 -28 -43 -40 -62 -40 -17 0 -31 -8 -38 -20 -7 -13 -21 -20 -40 -20 -19
0 -33 -7 -40 -20 -6 -12 -21 -20 -36 -20 -19 0 -43 -17 -84 -60 -41 -43 -65
-60 -84 -60 -15 0 -30 -8 -36 -20 -6 -12 -21 -20 -36 -20 -19 0 -51 -26 -124
-100 -65 -66 -106 -100 -120 -100 -14 0 -44 -22 -79 -59 -40 -41 -66 -60 -87
-63 -25 -3 -30 -8 -34 -38 l-5 -35 -112 -3 c-104 -2 -113 -1 -123 18 -7 13
-21 20 -40 20 -19 0 -33 7 -40 20 -9 17 -21 20 -80 20 -59 0 -71 3 -80 20 -6
12 -21 20 -36 20 -31 0 -84 50 -84 80 0 30 53 80 84 80 15 0 30 8 36 20 7 13
21 20 40 20 19 0 33 7 40 20 7 13 21 20 40 20 19 0 33 7 40 20 7 13 21 20 40
20 19 0 33 7 40 20 7 13 21 20 40 20 19 0 33 7 40 20 7 13 21 20 40 20 19 0
33 7 40 20 7 13 21 20 40 20 19 0 33 7 40 20 7 13 21 20 40 20 19 0 33 7 40
20 7 13 21 20 40 20 19 0 33 7 40 20 7 13 21 20 40 20 19 0 33 7 40 20 7 13
21 20 40 20 19 0 33 7 40 20 7 13 21 20 40 20 19 0 33 7 40 20 7 13 21 20 40
20 19 0 33 7 40 20 8 16 21 20 60 20 39 0 52 4 60 20 7 13 21 20 40 20 19 0
33 7 40 20 8 16 21 20 60 20 39 0 52 4 60 20 7 13 21 20 40 20 19 0 33 7 40
20 7 13 21 20 40 20 19 0 33 7 40 20 8 16 21 20 60 20 39 0 52 4 60 20 8 16
21 20 60 20 39 0 52 4 60 20 7 13 21 20 40 20 19 0 33 7 40 20 9 17 21 20 80
20 59 0 71 3 80 20 7 13 21 20 40 20 19 0 33 7 40 20 9 17 21 20 80 20 59 0
71 3 80 20 8 16 21 20 60 20 39 0 52 4 60 20 9 18 21 20 100 20 79 0 91 2 100
20 8 16 21 20 60 20 39 0 52 4 60 20 9 17 21 20 80 20 59 0 71 3 80 20 8 16
21 20 60 20 39 0 52 4 60 20 9 18 21 20 100 20 79 0 91 2 100 20 8 16 21 20
60 20 39 0 52 4 60 20 9 17 21 20 80 20 55 0 71 4 79 17 6 12 27 19 63 23 38
3 53 9 53 20 0 12 -16 16 -72 18 -60 2 -75 6 -83 22 -9 18 -22 20 -100 20 -79
0 -91 2 -100 20 -10 19 -21 20 -200 20 -179 0 -190 1 -200 20 -10 19 -21 20
-201 20 -182 0 -191 1 -196 20 -5 20 -14 20 -363 20 -349 0 -358 0 -363 -20
-5 -19 -14 -20 -196 -20 -180 0 -191 -1 -201 -20 -10 -19 -21 -20 -180 -20
-159 0 -170 -1 -180 -20 -9 -18 -21 -20 -100 -20 -79 0 -91 -2 -100 -20 -10
-18 -21 -20 -120 -20 -99 0 -110 -2 -120 -20 -8 -16 -21 -20 -60 -20 -39 0
-52 -4 -60 -20 -9 -18 -21 -20 -100 -20 -79 0 -91 -2 -100 -20 -8 -15 -21 -20
-55 -20 -33 0 -50 -6 -62 -20 -13 -15 -30 -20 -65 -20 -38 0 -50 -4 -58 -21
-9 -15 -19 -19 -43 -17 -42 4 -43 31 -1 38 18 3 44 20 65 43 29 31 40 37 76
37 36 0 48 6 81 39 33 34 46 40 88 43 47 3 49 4 52 35 2 24 -2 34 -17 43 -15
8 -21 21 -21 45 0 34 -1 35 -39 35 -30 0 -40 -4 -44 -20z M6960 13660 c-9 -18
-21 -20 -100 -20 -79 0 -91 -2 -100 -20 -7 -13 -21 -20 -40 -20 -19 0 -33 -7
-40 -20 -7 -13 -21 -20 -40 -20 -19 0 -33 -7 -40 -20 -7 -13 -21 -20 -40 -20
-19 0 -33 -7 -40 -20 -6 -12 -21 -20 -36 -20 -33 0 -204 -169 -204 -202 0 -14
-16 -37 -40 -58 -26 -23 -40 -44 -40 -60 0 -16 -14 -37 -40 -60 -36 -31 -40
-40 -40 -82 0 -37 -4 -50 -20 -58 -16 -8 -20 -21 -20 -60 0 -39 -4 -52 -20
-60 -17 -9 -20 -21 -20 -80 0 -60 -3 -71 -21 -80 -15 -9 -19 -19 -17 -43 3
-32 3 -32 58 -32 l55 0 5 35 c4 31 9 35 37 38 20 2 37 11 43 23 7 12 21 19 40
19 19 0 33 7 40 20 7 12 21 20 38 20 19 0 37 12 62 40 31 35 40 40 80 40 40 0
49 5 80 40 25 28 43 40 62 40 17 0 31 8 38 20 7 13 21 20 40 20 19 0 33 7 40
20 9 18 21 20 100 20 79 0 91 2 100 20 10 19 21 20 240 20 219 0 230 -1 240
-20 8 -16 21 -20 60 -20 39 0 52 -4 60 -20 7 -13 21 -20 40 -20 19 0 33 -7 40
-20 6 -12 21 -20 36 -20 35 0 204 -169 204 -204 0 -15 8 -30 20 -36 19 -10 20
-21 20 -200 0 -179 -1 -190 -20 -200 -13 -7 -20 -21 -20 -40 0 -19 -7 -33 -19
-40 -12 -6 -21 -23 -23 -43 -3 -28 -7 -33 -38 -37 -31 -4 -36 -9 -40 -40 -4
-31 -9 -36 -40 -40 -31 -4 -36 -9 -40 -40 -4 -30 -9 -35 -34 -38 -21 -3 -47
-22 -87 -63 -36 -37 -65 -59 -79 -59 -14 0 -43 -22 -80 -60 -35 -36 -66 -60
-79 -60 -14 0 -78 -57 -191 -170 -169 -169 -170 -170 -170 -215 0 -34 -5 -47
-20 -55 -19 -10 -20 -21 -20 -180 0 -159 1 -170 20 -180 17 -9 20 -21 20 -80
0 -59 3 -71 20 -80 13 -7 20 -21 20 -40 0 -19 7 -33 20 -40 17 -9 20 -21 20
-80 0 -59 3 -71 20 -80 13 -7 20 -21 20 -40 0 -19 7 -33 20 -40 17 -9 20 -21
20 -80 0 -59 3 -71 20 -80 13 -7 20 -21 20 -40 0 -19 7 -33 20 -40 17 -9 20
-21 20 -80 0 -59 3 -71 20 -80 13 -7 20 -21 20 -40 0 -19 7 -33 20 -40 17 -9
20 -21 20 -80 0 -59 3 -71 20 -80 13 -7 20 -21 20 -40 0 -19 7 -33 20 -40 17
-9 20 -21 20 -80 0 -59 3 -71 20 -80 13 -7 20 -21 20 -40 0 -19 7 -33 20 -40
19 -10 21 -19 18 -83 l-3 -72 -35 0 -35 0 -3 52 c-2 40 -8 55 -23 63 -12 7
-19 21 -19 40 0 19 -7 33 -20 40 -16 8 -20 21 -20 58 0 42 -4 51 -40 82 -36
31 -40 40 -40 82 0 37 -4 50 -20 58 -13 7 -20 21 -20 40 0 19 -7 33 -20 40
-13 7 -20 21 -20 40 0 19 -7 33 -20 40 -13 7 -20 21 -20 40 0 19 -7 33 -20 40
-16 8 -20 21 -20 60 0 39 -4 52 -20 60 -13 7 -20 21 -20 40 0 19 -7 33 -20 40
-16 8 -20 21 -20 58 0 42 -4 51 -40 82 -35 31 -40 40 -40 80 0 40 -5 49 -40
80 -36 31 -40 40 -40 82 0 37 -4 50 -20 58 -13 7 -20 21 -20 40 0 19 -7 33
-20 40 -13 7 -20 21 -20 40 0 19 -7 33 -20 40 -13 7 -20 21 -20 40 0 19 -7 33
-20 40 -16 8 -20 21 -20 60 0 39 -4 52 -20 60 -13 7 -20 21 -20 40 0 19 -7 33
-20 40 -16 8 -20 21 -20 58 0 42 -4 51 -40 82 -36 31 -40 40 -40 82 0 37 -4
50 -20 58 -13 7 -20 21 -20 40 0 19 -7 33 -20 40 -13 7 -20 21 -20 40 0 19 -7
33 -19 40 -12 6 -21 23 -23 43 l-3 32 -92 3 c-84 2 -93 1 -103 -18 -7 -13 -21
-20 -40 -20 -19 0 -33 -7 -40 -20 -9 -17 -21 -20 -80 -20 -59 0 -71 -3 -80
-20 -7 -13 -21 -20 -40 -20 -19 0 -33 -7 -40 -20 -9 -17 -21 -20 -80 -20 -59
0 -71 -3 -80 -20 -7 -13 -21 -20 -40 -20 -19 0 -33 -7 -40 -20 -9 -17 -21 -20
-90 -20 -95 0 -110 5 -110 36 0 19 45 70 181 205 156 155 180 183 177 207 -2
22 -8 28 -35 30 -20 2 -37 11 -43 23 -8 15 -21 19 -60 19 -39 0 -52 4 -60 20
-9 17 -21 20 -80 20 -59 0 -71 3 -80 20 -8 16 -21 20 -60 20 -39 0 -52 4 -60
20 -9 18 -21 20 -100 20 -79 0 -91 2 -100 20 -8 16 -21 20 -60 20 -39 0 -52 4
-60 20 -9 17 -21 20 -80 20 -59 0 -71 3 -80 20 -9 17 -21 20 -80 20 -59 0 -71
3 -80 20 -8 16 -21 20 -60 20 -27 0 -52 5 -55 11 -11 17 47 68 77 69 17 0 31
8 38 20 8 16 21 20 60 20 39 0 52 4 60 20 8 16 21 20 58 20 42 0 51 4 82 40
31 36 40 40 82 40 37 0 50 4 58 20 7 13 21 20 40 20 19 0 33 7 40 20 7 13 21
20 40 20 19 0 33 7 40 20 8 14 21 20 46 20 28 0 35 4 32 18 -2 13 -15 18 -56
20 -39 2 -54 8 -62 23 -7 12 -21 19 -40 19 -19 0 -33 7 -40 20 -10 19 -21 20
-180 20 -159 0 -170 -1 -180 -20 -8 -16 -21 -20 -60 -20 -39 0 -52 -4 -60 -20
-9 -18 -21 -20 -100 -20 -79 0 -91 -2 -100 -20 -8 -16 -21 -20 -60 -20 -39 0
-52 -4 -60 -20 -9 -18 -21 -20 -100 -20 -79 0 -91 -2 -100 -20 -7 -13 -21 -20
-40 -20 -19 0 -33 -7 -40 -20 -9 -17 -21 -20 -80 -20 -59 0 -71 -3 -80 -20 -9
-17 -21 -20 -80 -20 -59 0 -71 -3 -80 -20 -9 -17 -21 -20 -80 -20 -59 0 -71
-3 -80 -20 -7 -13 -21 -20 -40 -20 -19 0 -33 -7 -40 -20 -9 -17 -21 -20 -80
-20 -59 0 -71 -3 -80 -20 -7 -13 -21 -20 -40 -20 -19 0 -33 -7 -40 -20 -9 -17
-21 -20 -80 -20 -59 0 -71 -3 -80 -20 -7 -13 -21 -20 -40 -20 -19 0 -33 -7
-40 -20 -7 -13 -21 -20 -40 -20 -19 0 -33 -7 -40 -20 -7 -13 -21 -20 -40 -20
-19 0 -33 -7 -40 -19 -6 -12 -23 -21 -43 -23 -28 -3 -33 -7 -37 -38 -4 -31 -9
-36 -40 -40 -30 -4 -35 -9 -38 -35 -3 -19 -18 -43 -43 -66 -24 -22 -39 -45
-39 -60 0 -15 -14 -37 -40 -59 -28 -25 -40 -43 -40 -62 0 -17 -8 -31 -20 -38
-13 -7 -20 -21 -20 -40 0 -19 -7 -33 -20 -40 -17 -9 -20 -21 -20 -80 0 -59 -3
-71 -20 -80 -17 -9 -20 -21 -20 -80 0 -59 -3 -71 -20 -80 -16 -8 -20 -21 -20
-60 0 -39 -4 -52 -20 -60 -13 -7 -20 -21 -20 -40 0 -19 -7 -33 -20 -40 -12 -6
-20 -21 -20 -36 0 -33 -209 -244 -242 -244 -14 0 -37 -16 -58 -40 -23 -26 -44
-40 -60 -40 -16 0 -37 -14 -60 -40 -23 -26 -44 -40 -60 -40 -16 0 -37 -14 -60
-40 -23 -26 -44 -40 -60 -40 -16 0 -37 -14 -60 -40 -23 -26 -44 -40 -60 -40
-16 0 -37 -14 -60 -40 -23 -26 -44 -40 -60 -40 -16 0 -37 -14 -60 -40 -23 -26
-44 -40 -60 -40 -16 0 -37 -14 -60 -40 -23 -26 -44 -40 -60 -40 -16 0 -37 -14
-60 -40 -22 -26 -44 -40 -59 -40 -15 0 -38 -15 -60 -39 -23 -25 -47 -40 -66
-43 -26 -3 -31 -8 -35 -38 -4 -30 -9 -35 -34 -38 -21 -3 -51 -26 -107 -83 -48
-49 -85 -79 -98 -79 -30 0 -241 -212 -241 -242 0 -14 -16 -37 -40 -58 -28 -25
-40 -43 -40 -62 0 -17 -8 -31 -20 -38 -13 -7 -20 -21 -20 -40 0 -19 -7 -33
-20 -40 -13 -7 -20 -21 -20 -40 0 -19 -7 -33 -20 -40 -13 -7 -20 -21 -20 -40
0 -19 -7 -33 -20 -40 -12 -7 -20 -21 -20 -38 0 -19 -12 -37 -40 -62 -36 -32
-40 -40 -40 -83 0 -40 -3 -50 -20 -54 -16 -4 -20 -14 -20 -44 l0 -39 780 0
c573 0 780 -3 780 -11 0 -20 -139 -149 -161 -149 -13 0 -63 -44 -138 -119 -88
-89 -126 -120 -147 -123 -25 -3 -30 -8 -34 -38 -4 -31 -9 -36 -40 -40 -30 -4
-35 -9 -38 -35 -3 -19 -18 -43 -43 -66 -24 -22 -39 -45 -39 -60 0 -15 -14 -37
-40 -59 -28 -25 -40 -43 -40 -62 0 -17 -8 -31 -20 -38 -17 -9 -20 -21 -20 -80
0 -59 -3 -71 -20 -80 -27 -15 -27 -65 0 -80 17 -9 20 -21 20 -80 0 -59 3 -71
20 -80 13 -7 20 -21 20 -40 0 -19 7 -33 20 -40 13 -7 20 -21 20 -40 0 -19 7
-33 20 -40 12 -6 20 -21 20 -35 0 -19 50 -75 210 -235 207 -207 210 -210 252
-210 37 0 48 -5 78 -40 31 -35 40 -40 80 -40 40 0 49 -5 80 -40 34 -39 36 -40
102 -40 57 0 69 -3 78 -20 8 -16 21 -20 60 -20 39 0 52 -4 60 -20 9 -17 21
-20 80 -20 59 0 71 -3 80 -20 8 -16 21 -20 60 -20 39 0 52 -4 60 -20 9 -17 21
-20 80 -20 59 0 71 -3 80 -20 9 -17 21 -20 80 -20 59 0 71 -3 80 -20 9 -17 21
-20 80 -20 59 0 71 -3 80 -20 9 -17 21 -20 80 -20 59 0 71 -3 80 -20 9 -17 21
-20 80 -20 60 0 71 -3 80 -20 10 -19 19 -21 83 -18 l72 3 3 48 3 48 -81 79
-81 79 3 48 3 48 238 3 c264 3 267 4 197 63 -26 22 -40 42 -40 58 0 15 -15 38
-41 62 -32 30 -40 43 -37 66 2 24 8 28 35 31 20 2 37 11 43 23 10 17 22 19
120 19 99 0 110 2 120 20 8 16 21 20 60 20 56 0 72 15 42 39 -11 9 -22 30 -24
46 -3 26 -8 31 -38 35 -30 4 -35 9 -38 34 -3 21 -22 47 -63 87 -42 40 -59 64
-59 83 0 15 -8 30 -19 36 -12 6 -21 23 -23 43 -3 28 -7 33 -38 37 -30 4 -35 9
-38 34 -3 21 -22 47 -63 87 -37 36 -59 65 -59 79 0 14 -22 43 -60 80 -38 37
-60 66 -60 80 0 14 -22 44 -61 81 -50 48 -60 63 -57 86 3 26 6 28 55 31 40 2
55 8 63 23 7 12 21 19 40 19 19 0 33 7 40 20 10 18 21 20 120 20 99 0 110 2
120 20 9 17 21 20 80 20 59 0 71 3 80 20 9 17 21 20 80 20 59 0 71 3 80 20 8
16 21 20 60 20 39 0 52 4 60 20 8 16 21 20 58 20 42 0 51 4 82 40 22 25 44 40
58 40 16 0 49 25 102 80 51 52 86 80 100 80 14 0 44 22 80 60 41 43 65 60 84
60 15 0 30 8 36 20 9 17 21 20 80 20 59 0 71 3 80 20 9 17 21 20 80 20 59 0
71 3 80 20 9 18 21 20 100 20 79 0 91 -2 100 -20 9 -18 23 -20 143 -22 114 -3
132 -5 135 -20 2 -13 -5 -17 -35 -20 -35 -3 -38 -6 -43 -38 -4 -30 -9 -35 -34
-38 -39 -5 -126 -92 -126 -126 0 -15 -8 -30 -20 -36 -13 -7 -20 -21 -20 -40 0
-19 -7 -33 -20 -40 -16 -8 -20 -21 -20 -60 0 -39 -4 -52 -20 -60 -19 -10 -20
-21 -20 -220 0 -199 -1 -210 -20 -220 -18 -9 -20 -21 -20 -100 0 -79 -2 -91
-20 -100 -13 -7 -20 -21 -20 -40 0 -19 -7 -33 -20 -40 -16 -8 -20 -21 -20 -58
1 -39 6 -52 30 -76 l29 -28 130 130 c95 96 130 138 133 159 2 24 9 29 38 33
30 4 36 9 38 34 3 22 66 90 282 306 216 216 279 284 282 306 2 25 8 30 38 34
32 5 35 8 38 43 4 45 18 47 55 8 l27 -29 0 -246 c0 -235 -1 -246 -20 -256 -18
-10 -20 -21 -20 -120 0 -99 -2 -110 -20 -120 -17 -9 -20 -21 -20 -80 0 -59 -3
-71 -20 -80 -13 -7 -20 -21 -20 -40 0 -19 -7 -33 -20 -40 -13 -7 -20 -21 -20
-40 0 -19 -7 -33 -20 -40 -13 -7 -20 -21 -20 -40 0 -19 -7 -33 -19 -40 -12 -6
-21 -23 -23 -43 -3 -28 -7 -33 -38 -37 -30 -4 -35 -9 -38 -35 -3 -19 -18 -43
-43 -66 -22 -20 -39 -45 -39 -58 0 -29 -771 -801 -801 -801 -27 0 -79 -52 -79
-80 0 -28 -52 -80 -80 -80 -30 0 -78 -51 -82 -86 -2 -23 -8 -30 -31 -32 -37
-4 -287 -251 -287 -282 0 -14 -43 -64 -120 -140 -84 -83 -120 -126 -120 -142
0 -14 -15 -36 -40 -58 -26 -23 -40 -44 -40 -60 0 -16 -14 -37 -40 -60 -35 -31
-40 -40 -40 -80 0 -40 -5 -49 -40 -80 -39 -34 -40 -36 -40 -102 0 -57 -3 -69
-20 -78 -13 -7 -20 -21 -20 -40 0 -19 -7 -33 -20 -40 -18 -10 -20 -21 -20
-120 0 -99 -2 -110 -20 -120 -19 -10 -20 -21 -20 -340 0 -319 1 -330 20 -340
18 -9 20 -21 20 -100 0 -79 2 -91 20 -100 16 -8 20 -21 20 -60 0 -39 4 -52 20
-60 16 -8 20 -21 20 -60 0 -39 4 -52 20 -60 13 -7 20 -21 20 -40 0 -19 7 -33
20 -40 16 -8 20 -21 20 -60 0 -39 4 -52 20 -60 13 -7 20 -21 20 -40 0 -19 7
-33 20 -40 12 -7 20 -21 20 -38 0 -19 12 -37 40 -62 26 -23 40 -44 40 -60 0
-16 14 -37 40 -60 28 -25 40 -43 40 -62 0 -17 8 -31 20 -38 12 -6 20 -21 20
-36 0 -19 21 -47 80 -104 50 -48 80 -86 80 -99 0 -13 29 -50 70 -93 l71 -72
32 33 32 33 -22 15 c-22 15 -23 22 -23 144 0 118 2 129 20 139 19 10 20 21 20
200 0 179 1 190 20 200 17 9 20 21 20 80 0 59 3 71 20 80 17 9 20 21 20 80 0
59 3 71 20 80 16 8 20 21 20 60 0 39 4 52 20 60 16 8 20 21 20 60 0 39 4 52
20 60 13 7 20 21 20 40 0 19 7 33 20 40 13 7 20 21 20 40 0 19 7 33 20 40 13
7 20 21 20 40 0 19 7 33 20 40 13 7 20 21 20 40 0 19 7 33 20 40 12 6 20 21
20 36 0 19 17 43 60 84 43 41 60 65 60 84 0 15 8 30 20 36 12 6 20 21 20 36 0
19 25 50 99 123 73 72 100 106 103 127 3 25 8 30 38 34 30 4 36 9 38 33 5 41
248 284 289 289 24 2 29 8 33 38 4 31 9 36 40 40 31 4 36 9 40 40 4 30 9 35
34 38 21 3 55 30 127 103 64 65 105 99 119 99 14 0 44 22 79 59 40 41 66 60
87 63 25 3 30 8 34 38 4 30 9 35 34 38 21 3 55 30 127 103 64 65 105 99 119
99 14 0 44 22 79 59 40 41 66 60 87 63 25 3 30 8 34 38 4 30 9 35 34 38 22 3
67 42 187 163 102 103 165 159 179 159 28 0 400 372 400 401 0 13 30 50 80 99
55 53 80 86 80 102 0 14 15 36 40 58 36 31 40 40 40 82 0 37 4 50 20 58 13 7
20 21 20 40 0 19 7 33 20 40 13 7 20 21 20 40 0 19 7 33 20 40 16 8 20 21 20
60 0 39 4 52 20 60 19 10 20 21 20 316 l0 306 29 29 c16 16 39 29 51 29 28 0
80 -52 80 -81 0 -13 16 -37 39 -58 25 -23 40 -47 43 -66 3 -26 8 -31 38 -35
30 -4 35 -9 38 -34 3 -21 26 -51 82 -106 56 -55 79 -85 82 -106 3 -29 4 -29
71 -32 63 -3 69 -1 97 27 18 17 30 40 30 55 0 15 8 30 20 36 18 10 20 21 20
140 0 119 2 130 20 140 18 9 20 21 20 100 0 79 2 91 20 100 19 10 20 21 20
360 0 339 -1 350 -20 360 -17 9 -20 21 -20 80 0 59 -3 71 -20 80 -17 9 -20 21
-20 80 0 59 -3 71 -20 80 -13 7 -20 21 -20 40 0 19 -7 33 -20 40 -17 9 -20 21
-20 80 0 59 -3 71 -20 80 -13 7 -20 21 -20 40 0 19 -7 33 -20 40 -17 9 -20 21
-20 80 0 60 -3 71 -21 80 -15 9 -19 19 -17 43 2 27 8 33 31 35 23 3 36 -5 66
-37 33 -36 43 -41 82 -41 39 0 48 -5 79 -40 25 -28 43 -40 62 -40 17 0 31 -8
38 -20 7 -13 21 -20 40 -20 19 0 33 -7 40 -20 8 -16 21 -20 58 -20 42 0 51 -4
82 -40 31 -35 40 -40 80 -40 40 0 49 -5 80 -40 25 -28 43 -40 62 -40 17 0 31
-8 38 -20 7 -13 21 -20 40 -20 19 0 33 -7 40 -20 7 -12 21 -20 38 -20 16 0 32
-8 40 -20 24 -39 42 -25 42 35 0 44 -4 56 -20 65 -17 9 -20 21 -20 80 0 59 -3
71 -20 80 -17 9 -20 21 -20 80 0 59 -3 71 -20 80 -17 9 -20 21 -20 80 0 59 -3
71 -20 80 -16 8 -20 21 -20 60 0 39 -4 52 -20 60 -17 9 -20 21 -20 80 0 59 -3
71 -20 80 -13 7 -20 21 -20 40 0 19 -7 33 -20 40 -17 9 -20 21 -20 80 0 59 -3
71 -20 80 -16 8 -20 21 -20 60 0 39 -4 52 -20 60 -13 7 -20 21 -20 40 0 19 -7
33 -20 40 -13 7 -20 21 -20 40 0 19 -7 33 -20 40 -16 8 -20 21 -20 58 0 42 -4
51 -40 82 -26 23 -40 44 -40 60 0 16 -14 37 -40 60 -24 21 -40 44 -40 58 0 31
-131 162 -162 162 -14 0 -37 16 -58 40 l-35 40 -267 0 c-257 0 -268 -1 -278
-20 -9 -17 -21 -20 -80 -20 -59 0 -71 -3 -80 -20 -10 -19 -19 -20 -123 -18
-97 3 -112 5 -115 21 -3 13 3 17 27 17 19 0 38 8 48 20 10 11 28 20 41 20 16
0 43 20 82 60 41 43 65 60 84 60 15 0 30 8 36 20 6 12 21 20 36 20 19 0 47 21
104 80 49 50 86 80 99 80 32 0 361 332 361 365 0 14 8 29 20 35 12 7 20 21 20
38 0 19 12 37 40 62 36 31 40 40 40 82 0 37 4 50 20 58 18 9 20 21 20 100 0
79 2 91 20 100 18 9 20 21 20 100 0 79 -2 91 -20 100 -17 9 -20 21 -20 80 0
59 -3 71 -20 80 -17 9 -20 21 -20 80 0 59 -3 71 -20 80 -13 7 -20 21 -20 40 0
19 -7 33 -20 40 -13 7 -20 21 -20 40 0 19 -7 33 -20 40 -12 6 -20 21 -20 36 0
19 -17 43 -59 83 -41 40 -60 66 -63 87 -2 24 -8 30 -33 32 -19 3 -43 18 -66
43 -22 24 -45 39 -60 39 -15 0 -37 14 -59 40 -25 28 -43 40 -62 40 -17 0 -31
8 -38 20 -7 13 -21 20 -40 20 -19 0 -33 7 -40 20 -8 16 -21 20 -60 20 -39 0
-52 4 -60 20 -7 13 -21 20 -40 20 -19 0 -33 7 -40 20 -9 18 -21 20 -100 20
-79 0 -91 2 -100 20 -10 19 -21 20 -300 20 -279 0 -290 -1 -300 -20z m-2600
-2434 c0 -7 -18 -28 -40 -47 -39 -33 -40 -35 -40 -101 0 -57 -3 -69 -20 -78
-12 -6 -20 -21 -20 -36 0 -19 -17 -43 -59 -83 -41 -40 -60 -66 -63 -87 -3 -25
-8 -30 -38 -34 -31 -4 -36 -9 -40 -40 -4 -31 -9 -35 -37 -38 -20 -2 -37 -11
-43 -23 -7 -12 -21 -19 -40 -19 -19 0 -33 -7 -40 -20 -9 -17 -21 -20 -80 -20
-59 0 -71 -3 -80 -20 -10 -19 -21 -20 -300 -20 -279 0 -290 -1 -300 -20 -10
-18 -21 -20 -145 -20 -153 0 -161 5 -95 61 36 30 40 39 40 79 0 40 5 49 40 80
24 21 40 44 40 58 0 31 171 202 202 202 14 0 37 16 58 40 31 36 40 40 82 40
37 0 50 4 58 20 7 13 21 20 40 20 19 0 33 7 40 20 9 17 21 20 80 20 59 0 71 3
80 20 10 18 21 20 120 20 99 0 110 2 120 20 10 19 21 20 245 20 191 0 235 -3
235 -14z M10487 11713 c-4 -3 -7 -37 -7 -74 0 -58 3 -70 20 -79 19 -10 20 -21
20 -160 0 -139 1 -150 20 -160 18 -9 20 -21 20 -100 0 -79 2 -91 20 -100 18
-10 20 -21 20 -140 0 -119 2 -130 20 -140 17 -9 20 -21 20 -80 0 -59 3 -71 20
-80 18 -10 20 -21 20 -140 0 -119 2 -130 20 -140 18 -10 20 -21 20 -120 0 -99
2 -110 20 -120 19 -10 20 -21 20 -160 0 -139 1 -150 20 -160 18 -10 20 -21 20
-140 0 -119 2 -130 20 -140 20 -11 20 -21 20 -580 0 -559 0 -569 -20 -580 -18
-9 -20 -21 -20 -100 0 -79 -2 -91 -20 -100 -17 -9 -20 -21 -20 -80 0 -59 -3
-71 -20 -80 -17 -9 -20 -21 -20 -80 0 -59 -3 -71 -20 -80 -16 -8 -20 -21 -20
-58 0 -42 -4 -51 -40 -82 -39 -34 -40 -36 -40 -102 0 -57 -3 -69 -20 -78 -13
-7 -20 -21 -20 -40 0 -19 -7 -33 -20 -40 -13 -7 -20 -21 -20 -40 0 -19 -7 -33
-20 -40 -13 -7 -20 -21 -20 -40 0 -19 -7 -33 -20 -40 -13 -7 -20 -21 -20 -40
0 -19 -7 -33 -20 -40 -12 -6 -20 -21 -20 -36 0 -19 -17 -43 -60 -84 -43 -41
-60 -65 -60 -84 0 -15 -8 -30 -20 -36 -12 -6 -20 -21 -20 -35 0 -18 -34 -59
-130 -156 -71 -72 -134 -128 -140 -124 -24 15 -10 60 30 95 36 31 40 40 40 82
0 37 4 50 20 58 13 7 20 21 20 40 0 19 7 33 20 40 13 7 20 21 20 40 0 19 7 33
20 40 13 7 20 21 20 40 0 19 7 33 20 40 17 9 20 21 20 80 0 59 3 71 20 80 13
7 20 21 20 40 0 19 7 33 20 40 17 9 20 21 20 80 0 59 3 71 20 80 17 9 20 21
20 80 0 59 3 71 20 80 18 10 20 21 20 120 0 99 2 110 20 120 18 10 20 21 20
120 0 99 2 110 20 120 20 10 20 21 20 440 0 419 0 430 -20 440 -18 10 -20 21
-20 120 0 99 -2 110 -20 120 -18 10 -20 21 -20 120 0 99 -2 110 -20 120 -17 9
-20 21 -20 80 0 59 -3 71 -20 80 -17 9 -20 21 -20 80 0 59 -3 71 -20 80 -13 7
-20 21 -20 40 0 19 -7 33 -20 40 -17 9 -20 21 -20 80 0 59 -3 71 -20 80 -13 7
-20 21 -20 40 0 19 -7 33 -20 40 -13 7 -20 21 -20 40 0 19 -7 33 -20 40 -13 7
-20 21 -20 40 0 19 -7 33 -20 40 -13 7 -20 21 -20 40 0 19 -7 33 -20 40 -13 7
-20 21 -20 40 0 19 -7 33 -20 40 -13 7 -20 21 -20 40 0 19 -7 33 -20 40 -14 8
-20 21 -20 45 0 24 -5 35 -14 35 -24 0 -29 -18 -27 -106 2 -74 0 -84 -18 -94
-20 -10 -21 -19 -21 -300 0 -279 -1 -290 -20 -300 -19 -10 -20 -21 -20 -400 0
-379 -1 -390 -20 -400 -18 -10 -20 -21 -20 -140 0 -119 -2 -130 -20 -140 -18
-10 -20 -21 -20 -120 0 -99 -2 -110 -20 -120 -17 -9 -20 -21 -20 -80 0 -59 -3
-71 -20 -80 -17 -9 -20 -21 -20 -80 0 -59 -3 -71 -20 -80 -13 -7 -20 -21 -20
-40 0 -19 -7 -33 -20 -40 -16 -8 -20 -21 -20 -60 0 -39 -4 -52 -20 -60 -13 -7
-20 -21 -20 -40 0 -19 -7 -33 -20 -40 -16 -8 -20 -21 -20 -60 0 -39 -4 -52
-20 -60 -13 -7 -20 -21 -20 -40 0 -19 -7 -33 -20 -40 -12 -7 -20 -21 -20 -38
0 -19 -12 -37 -40 -62 -35 -31 -40 -40 -40 -80 0 -40 -5 -49 -40 -80 -26 -23
-40 -44 -40 -60 0 -16 -14 -37 -40 -60 -26 -22 -40 -44 -40 -59 0 -15 -15 -38
-39 -60 -25 -23 -40 -47 -43 -66 -3 -26 -8 -31 -38 -35 -30 -4 -35 -9 -38 -34
-3 -21 -26 -51 -83 -107 -49 -48 -79 -85 -79 -98 0 -29 -132 -161 -160 -161
-14 0 -63 -43 -140 -120 -78 -79 -126 -120 -140 -120 -14 0 -50 -29 -100 -80
-52 -53 -86 -80 -101 -80 -13 0 -37 -16 -58 -39 -23 -25 -47 -40 -66 -43 -26
-3 -31 -8 -35 -38 -4 -30 -9 -35 -35 -38 -19 -3 -43 -18 -66 -43 -22 -24 -45
-39 -60 -39 -15 0 -37 -14 -59 -40 -22 -25 -44 -40 -58 -40 -16 0 -49 -25
-102 -80 -53 -55 -86 -80 -102 -80 -14 0 -36 -15 -58 -40 -22 -25 -44 -40 -58
-40 -16 0 -49 -25 -102 -80 -53 -55 -86 -80 -102 -80 -14 0 -36 -15 -58 -40
-22 -25 -44 -40 -58 -40 -16 0 -54 -31 -122 -100 -65 -66 -106 -100 -120 -100
-14 0 -44 -22 -79 -59 -40 -41 -66 -60 -87 -63 -25 -3 -30 -8 -34 -38 -4 -31
-9 -36 -40 -40 -31 -4 -36 -9 -40 -40 -4 -30 -9 -36 -33 -38 -41 -5 -364 -328
-369 -369 -2 -24 -8 -29 -38 -33 -30 -4 -35 -9 -38 -34 -3 -21 -22 -47 -63
-87 -37 -36 -59 -65 -59 -79 0 -14 -22 -43 -59 -79 -41 -40 -60 -66 -63 -87
-3 -25 -8 -30 -38 -34 -31 -4 -35 -9 -38 -37 -2 -20 -11 -37 -23 -43 -12 -7
-19 -21 -19 -40 0 -19 -7 -33 -20 -40 -12 -7 -20 -21 -20 -38 0 -19 -12 -37
-40 -62 -26 -23 -40 -44 -40 -60 0 -16 -14 -37 -40 -60 -36 -31 -40 -40 -40
-82 0 -37 -4 -50 -20 -58 -13 -7 -20 -21 -20 -40 0 -19 -7 -33 -20 -40 -16 -8
-20 -21 -20 -60 0 -39 -4 -52 -20 -60 -13 -7 -20 -21 -20 -40 0 -19 -7 -33
-20 -40 -16 -8 -20 -21 -20 -60 0 -39 -4 -52 -20 -60 -16 -8 -20 -21 -20 -60
0 -39 -4 -52 -20 -60 -17 -9 -20 -21 -20 -80 0 -59 -3 -71 -20 -80 -17 -9 -20
-21 -20 -80 0 -59 -3 -71 -20 -80 -19 -10 -20 -21 -20 -380 0 -359 1 -370 20
-380 17 -9 20 -21 20 -80 0 -59 3 -71 20 -80 16 -8 20 -21 20 -60 0 -39 4 -52
20 -60 16 -8 20 -21 20 -60 0 -39 4 -52 20 -60 16 -8 20 -21 20 -58 0 -42 4
-51 40 -82 35 -31 40 -40 40 -80 0 -40 5 -49 40 -80 26 -23 40 -44 40 -60 0
-16 14 -37 40 -60 25 -22 40 -44 40 -58 0 -16 25 -49 80 -102 66 -64 80 -84
80 -109 0 -39 17 -40 53 -2 26 28 27 33 27 135 0 95 2 106 20 116 17 9 20 21
20 80 0 59 3 71 20 80 17 9 20 21 20 80 0 59 3 71 20 80 17 9 20 21 20 80 0
59 3 71 20 80 16 8 20 21 20 58 0 42 4 51 40 82 39 34 40 36 40 102 0 57 3 69
20 78 13 7 20 21 20 40 0 19 7 33 20 40 13 7 20 21 20 40 0 19 7 33 20 40 13
7 20 21 20 40 0 19 7 33 20 40 13 7 20 21 20 40 0 19 7 33 20 40 13 7 20 21
20 40 0 19 7 33 20 40 12 7 20 21 20 38 0 19 12 37 40 62 26 23 40 44 40 60 0
16 14 37 40 60 26 23 40 44 40 60 0 16 14 37 40 60 26 22 40 44 40 59 0 15 15
38 39 60 25 23 40 47 43 66 3 26 8 31 38 35 31 4 36 9 40 40 4 31 9 36 40 40
30 4 35 9 38 35 3 19 18 43 43 66 23 21 39 45 39 58 0 29 52 81 80 81 28 0 80
52 80 80 0 28 132 160 161 160 13 0 50 30 98 79 56 57 86 80 107 83 25 3 30 8
34 38 4 30 9 35 34 38 21 3 51 26 107 83 53 54 85 79 101 79 14 0 36 15 58 40
22 25 44 40 58 40 16 0 49 25 102 80 53 55 86 80 102 80 14 0 36 15 58 40 22
26 44 40 59 40 15 0 37 15 61 41 40 45 60 45 60 1 0 -19 -12 -38 -40 -62 -26
-22 -40 -44 -40 -59 0 -15 -15 -38 -39 -60 -25 -23 -40 -47 -43 -66 -3 -26 -8
-31 -38 -35 -34 -5 -35 -6 -38 -55 -3 -43 -8 -54 -43 -86 -24 -22 -39 -45 -39
-60 0 -15 -14 -37 -40 -59 -26 -23 -40 -44 -40 -60 0 -16 -14 -37 -40 -60 -28
-25 -40 -43 -40 -62 0 -17 -8 -31 -20 -38 -12 -6 -20 -21 -20 -36 0 -19 -17
-43 -60 -84 -43 -41 -60 -65 -60 -84 0 -15 -8 -30 -20 -36 -12 -6 -20 -21 -20
-36 0 -19 -17 -43 -60 -84 -55 -53 -60 -61 -60 -101 0 -39 -5 -48 -40 -79 -28
-25 -40 -43 -40 -62 0 -17 -8 -31 -20 -38 -12 -6 -20 -21 -20 -36 0 -19 -17
-43 -60 -84 -43 -41 -60 -65 -60 -84 0 -15 -8 -30 -20 -36 -13 -7 -20 -21 -20
-40 0 -19 -7 -33 -20 -40 -12 -7 -20 -21 -20 -38 0 -19 -12 -37 -40 -62 -35
-31 -40 -40 -40 -80 0 -40 -5 -49 -40 -80 -26 -23 -40 -44 -40 -60 0 -16 -14
-37 -40 -60 -36 -31 -40 -40 -40 -82 0 -37 -4 -50 -20 -58 -13 -7 -20 -21 -20
-40 0 -19 -7 -33 -20 -40 -16 -8 -20 -21 -20 -60 0 -39 -4 -52 -20 -60 -13 -7
-20 -21 -20 -40 0 -19 -7 -33 -20 -40 -16 -8 -20 -21 -20 -60 0 -39 -4 -52
-20 -60 -16 -8 -20 -21 -20 -60 0 -39 -4 -52 -20 -60 -19 -10 -20 -21 -20
-400 0 -379 1 -390 20 -400 16 -8 20 -21 20 -60 0 -39 4 -52 20 -60 16 -8 20
-21 20 -60 0 -39 4 -52 20 -60 13 -7 20 -21 20 -40 0 -19 7 -33 20 -40 13 -7
20 -21 20 -40 0 -19 7 -33 20 -40 13 -7 20 -21 20 -40 0 -19 7 -33 20 -40 12
-6 20 -21 20 -36 0 -19 21 -47 80 -104 66 -64 80 -84 80 -109 0 -29 2 -31 40
-31 l40 0 0 55 c0 44 4 56 20 65 13 7 20 21 20 40 0 19 7 33 20 40 17 9 20 21
20 80 0 59 3 71 20 80 13 7 20 21 20 40 0 19 7 33 20 40 16 8 20 21 20 58 0
42 4 51 40 82 35 31 40 40 40 80 0 40 5 49 40 80 35 31 40 40 40 80 0 40 5 49
40 80 28 25 40 43 40 62 0 17 8 31 20 38 12 7 20 21 20 38 0 19 12 37 40 62
26 23 40 44 40 60 0 16 14 37 40 60 25 22 40 44 40 59 0 15 20 43 60 81 38 37
60 66 60 80 0 14 22 43 60 80 37 36 60 66 60 80 0 14 34 55 99 119 73 72 100
106 103 127 3 25 8 30 38 34 31 4 36 9 40 40 4 31 9 36 40 40 31 4 36 9 40 40
4 31 9 36 40 40 31 4 36 9 40 40 4 31 9 36 40 40 31 4 36 9 40 40 4 31 9 36
40 40 31 4 36 9 40 40 4 31 9 36 40 40 31 4 36 9 40 40 4 31 9 36 40 40 31 4
36 9 40 40 4 30 9 36 34 38 22 3 75 50 227 203 132 132 205 199 219 199 14 0
63 42 139 119 88 89 126 120 147 123 25 3 30 8 34 38 4 30 9 36 34 38 22 3 83
58 267 243 157 157 245 239 259 239 28 0 200 172 200 200 0 28 212 240 240
240 28 0 160 133 160 160 0 14 62 83 180 200 121 120 180 186 180 200 0 14 30
51 80 100 55 53 80 86 80 102 0 14 15 36 40 58 26 23 40 44 40 60 0 16 14 37
40 60 26 23 40 44 40 60 0 16 14 37 40 60 26 23 40 44 40 60 0 16 14 37 40 60
35 31 40 40 40 80 0 40 5 49 40 80 28 25 40 43 40 62 0 17 8 31 20 38 13 7 20
21 20 40 0 19 7 33 20 40 16 8 20 21 20 58 0 42 4 51 40 82 36 31 40 40 40 82
0 37 4 50 20 58 13 7 20 21 20 40 0 19 7 33 20 40 17 9 20 21 20 80 0 59 3 71
20 80 17 9 20 21 20 80 0 59 3 71 20 80 18 9 20 21 20 100 0 79 2 91 20 100
17 9 20 21 20 80 0 59 3 71 20 80 19 10 20 21 20 280 0 259 1 270 20 280 18 9
20 21 20 100 0 79 -2 91 -20 100 -19 10 -20 21 -20 280 0 260 -1 270 -20 280
-20 11 -20 19 -18 243 l3 232 75 0 75 0 3 -29 c3 -21 22 -47 63 -87 39 -38 59
-65 59 -80 0 -15 15 -37 40 -59 26 -23 40 -44 40 -60 0 -16 14 -37 40 -60 25
-22 40 -44 40 -59 0 -15 20 -43 60 -81 40 -38 60 -66 60 -81 0 -15 15 -37 40
-59 25 -22 40 -44 40 -59 0 -15 20 -43 60 -81 40 -38 60 -66 60 -81 0 -15 15
-37 40 -59 26 -23 40 -44 40 -60 0 -16 14 -37 40 -60 26 -23 40 -44 40 -60 0
-16 14 -37 40 -60 25 -22 40 -44 40 -59 0 -15 20 -43 60 -81 48 -46 60 -64 60
-89 0 -39 17 -40 53 -2 21 23 27 39 27 75 0 35 4 48 20 56 18 9 20 21 20 100
0 79 2 91 20 100 18 9 20 21 20 100 0 79 2 91 20 100 19 10 20 21 20 320 0
299 -1 310 -20 320 -18 10 -20 21 -20 120 0 99 -2 110 -20 120 -18 10 -20 21
-20 120 0 99 -2 110 -20 120 -17 9 -20 21 -20 80 0 59 -3 71 -20 80 -17 9 -20
21 -20 80 0 59 -3 71 -20 80 -13 7 -20 21 -20 40 0 19 -7 33 -20 40 -17 9 -20
21 -20 80 0 59 -3 71 -20 80 -13 7 -20 21 -20 40 0 19 -7 33 -20 40 -16 8 -20
21 -20 60 0 39 -4 52 -20 60 -13 7 -20 21 -20 40 0 19 -7 33 -20 40 -16 8 -20
21 -20 58 0 42 -4 51 -40 82 -36 31 -40 40 -40 82 0 37 -4 50 -20 58 -13 7
-20 21 -20 40 0 19 -7 33 -20 40 -12 7 -20 21 -20 38 0 19 -12 37 -40 62 -26
23 -40 44 -40 60 0 16 -14 37 -40 60 -28 25 -40 43 -40 62 0 17 -8 31 -20 38
-13 7 -20 21 -20 40 0 19 -7 33 -20 40 -12 6 -20 21 -20 36 0 19 -21 47 -80
104 -55 53 -80 86 -80 102 0 14 -15 36 -40 58 -24 21 -40 44 -40 58 0 30 -570
602 -601 602 -13 0 -44 24 -79 60 -38 40 -66 60 -81 60 -15 0 -37 15 -59 40
-25 28 -43 40 -62 40 -17 0 -31 8 -38 20 -7 12 -21 20 -38 20 -19 0 -37 12
-62 40 -31 36 -40 40 -82 40 -37 0 -50 4 -58 20 -7 13 -21 20 -40 20 -19 0
-33 7 -40 20 -9 17 -21 20 -80 20 -59 0 -71 3 -80 20 -9 18 -21 20 -100 20
-79 0 -91 2 -100 20 -9 18 -21 20 -99 20 -48 0 -91 -3 -94 -7z M248 8230 c-47
-48 -48 -50 -48 -114 0 -55 3 -67 20 -76 16 -8 20 -21 20 -60 0 -39 4 -52 20
-60 16 -8 20 -21 20 -58 0 -42 4 -51 40 -82 35 -31 40 -40 40 -78 0 -42 4 -47
100 -142 64 -63 100 -106 100 -120 0 -28 132 -160 161 -160 14 0 49 -29 99
-81 43 -45 83 -78 89 -74 19 11 13 63 -9 75 -13 7 -20 21 -20 40 0 19 -7 33
-20 40 -16 8 -20 21 -20 58 0 42 -4 51 -40 82 -36 31 -40 40 -40 82 0 37 -4
50 -20 58 -13 7 -20 21 -20 40 0 19 -7 33 -20 40 -13 7 -20 21 -20 40 0 19 -7
33 -20 40 -13 7 -20 21 -20 40 0 19 -7 33 -20 40 -16 8 -20 21 -20 58 0 42 -4
51 -40 82 -39 34 -40 37 -40 99 0 62 -1 65 -39 100 -35 32 -40 43 -43 86 l-3
50 -70 2 -70 2 -47 -49z M1120 6780 c-6 -12 -21 -20 -36 -20 -34 0 -124 -90
-124 -124 0 -15 -8 -30 -20 -36 -13 -7 -20 -21 -20 -40 0 -19 -7 -33 -20 -40
-13 -7 -20 -21 -20 -40 0 -19 -7 -33 -20 -40 -19 -10 -20 -21 -20 -240 0 -219
1 -230 20 -240 17 -9 20 -21 20 -80 0 -58 3 -71 19 -80 12 -6 21 -23 23 -43
l3 -32 712 -3 c704 -2 712 -2 723 18 7 13 21 20 40 20 19 0 33 7 40 20 6 12
21 20 36 20 33 0 84 51 84 84 0 15 -8 30 -20 36 -16 8 -20 21 -20 60 0 39 -4
52 -20 60 -15 8 -20 21 -20 56 0 43 -3 47 -110 154 -81 81 -116 110 -134 110
-15 0 -30 8 -36 20 -6 12 -21 20 -36 20 -19 0 -43 17 -84 60 -41 43 -65 60
-84 60 -15 0 -30 8 -36 20 -7 13 -21 20 -40 20 -19 0 -33 7 -40 20 -7 13 -21
20 -40 20 -19 0 -33 7 -40 20 -7 13 -21 20 -40 20 -19 0 -33 7 -40 20 -7 13
-21 20 -40 20 -19 0 -33 7 -40 20 -7 13 -21 20 -40 20 -19 0 -33 7 -40 20 -8
16 -21 20 -60 20 -39 0 -52 4 -60 20 -10 19 -21 20 -160 20 -139 0 -150 -1
-160 -20z"/></g></g>
    <g transform="scale(0.25)"><g transform="translate(0.000000,1564.000000) scale(0.100000,-0.100000)"><path d="M27000 14620 c-10 -19 -21 -20 -160 -20 -139 0 -150 -1 -160 -20 -10
-19 -21 -20 -160 -20 -139 0 -150 -1 -160 -20 -10 -19 -21 -20 -200 -20 -179
0 -190 -1 -200 -20 -9 -17 -21 -20 -80 -20 -59 0 -71 -3 -80 -20 -10 -18 -21
-20 -120 -20 -99 0 -110 -2 -120 -20 -8 -16 -21 -20 -60 -20 -39 0 -52 -4 -60
-20 -8 -16 -21 -20 -60 -20 -39 0 -52 -4 -60 -20 -7 -13 -21 -20 -40 -20 -19
0 -33 -7 -40 -20 -7 -12 -21 -20 -38 -20 -19 0 -37 -12 -62 -40 -22 -26 -44
-40 -59 -40 -15 0 -38 -15 -60 -39 -23 -25 -47 -40 -66 -43 -26 -3 -31 -8 -35
-38 -4 -31 -9 -36 -40 -40 -30 -4 -35 -9 -38 -34 -3 -21 -22 -47 -63 -87 -42
-40 -59 -64 -59 -83 0 -15 -8 -30 -20 -36 -13 -7 -20 -21 -20 -40 0 -19 -7
-33 -20 -40 -13 -7 -20 -21 -20 -40 0 -19 -7 -33 -20 -40 -17 -9 -20 -21 -20
-80 0 -59 -3 -71 -20 -80 -18 -9 -20 -21 -20 -100 0 -79 -2 -91 -20 -100 -20
-10 -20 -21 -20 -460 0 -439 0 -450 20 -460 19 -10 20 -21 20 -180 0 -159 -1
-170 -20 -180 -19 -10 -20 -21 -20 -180 0 -158 -1 -170 -19 -180 -15 -8 -21
-23 -23 -63 l-3 -52 -2895 0 -2895 0 -5 1495 -5 1495 -712 3 c-704 2 -712 2
-723 -18 -10 -18 -21 -20 -120 -20 -99 0 -110 -2 -120 -20 -9 -17 -21 -20 -80
-20 -59 0 -71 -3 -80 -20 -7 -13 -21 -20 -40 -20 -19 0 -33 -7 -40 -20 -7 -13
-21 -20 -40 -20 -19 0 -33 -7 -40 -20 -7 -13 -21 -20 -40 -20 -19 0 -33 -7
-40 -20 -6 -12 -21 -20 -36 -20 -33 0 -284 -249 -284 -282 0 -14 -16 -37 -40
-58 -28 -25 -40 -43 -40 -62 0 -17 -8 -31 -20 -38 -13 -7 -20 -21 -20 -40 0
-19 -7 -33 -20 -40 -17 -9 -20 -21 -20 -80 0 -59 -3 -71 -20 -80 -18 -9 -20
-21 -20 -100 0 -79 -2 -91 -20 -100 -20 -11 -20 -19 -18 -3723 l3 -3712 32 -3
c24 -2 34 2 43 17 10 19 20 21 120 21 99 0 110 2 120 20 10 19 21 20 200 20
179 0 190 1 200 20 10 18 21 20 140 20 119 0 130 2 140 20 10 19 21 20 180 20
159 0 170 1 180 20 9 17 21 20 80 20 59 0 71 3 80 20 9 17 21 20 80 20 59 0
71 3 80 20 8 16 21 20 60 20 39 0 52 4 60 20 8 16 21 20 60 20 39 0 52 4 60
20 7 13 21 20 40 20 19 0 33 7 40 20 7 12 21 20 38 20 19 0 37 12 62 40 22 25
44 40 58 40 16 0 48 25 101 79 56 57 86 80 107 83 24 2 30 8 32 33 3 19 18 43
43 66 24 22 39 45 39 60 0 15 14 37 40 59 36 31 40 40 40 82 0 37 4 50 20 58
13 7 20 21 20 40 0 19 7 33 20 40 18 10 20 21 20 120 0 99 2 110 20 120 20 10
20 21 20 440 0 419 0 430 -20 440 -19 10 -20 21 -20 300 0 279 1 290 20 300
18 9 20 21 20 100 0 78 2 91 19 100 15 8 21 23 23 63 l3 52 2915 0 2915 0 5
-1475 5 -1475 969 -3 c629 -1 973 1 980 8 15 15 -44 69 -76 70 -17 0 -31 8
-38 20 -7 13 -21 20 -40 20 -19 0 -33 7 -40 20 -7 13 -21 20 -40 20 -19 0 -33
7 -40 20 -7 13 -21 20 -40 20 -19 0 -33 7 -40 20 -6 12 -21 20 -36 20 -19 0
-43 17 -84 60 -35 36 -66 60 -79 60 -32 0 -401 372 -401 405 0 14 -8 29 -20
35 -12 7 -20 21 -20 38 0 19 -12 37 -40 62 -28 25 -40 43 -40 62 0 17 -8 31
-20 38 -13 7 -20 21 -20 40 0 19 -7 33 -20 40 -16 8 -20 21 -20 60 0 39 -4 52
-20 60 -13 7 -20 21 -20 40 0 19 -7 33 -20 40 -17 9 -20 21 -20 80 0 59 -3 71
-20 80 -17 9 -20 21 -20 80 0 59 -3 71 -20 80 -19 10 -20 21 -20 200 0 179 -1
190 -20 200 -20 11 -20 21 -20 600 0 579 0 589 20 600 19 10 20 21 20 160 0
139 1 150 20 160 17 9 20 21 20 80 0 59 3 71 20 80 16 8 20 21 20 58 0 42 4
51 40 82 35 31 40 40 40 80 0 40 5 49 40 80 25 22 40 44 40 59 0 15 20 43 60
81 37 35 60 66 60 79 0 32 132 161 164 161 15 0 30 8 36 20 6 12 21 20 36 20
19 0 43 17 84 60 41 43 65 60 84 60 15 0 30 8 36 20 8 16 21 20 60 20 39 0 52
4 60 20 7 13 21 20 40 20 19 0 33 7 40 20 9 17 21 20 80 20 59 0 71 3 80 20 8
16 21 20 60 20 39 0 52 4 60 20 8 16 23 20 83 22 l72 3 3 32 c2 24 -2 34 -17
43 -14 7 -21 21 -21 40 0 19 -7 33 -20 40 -12 6 -20 21 -20 36 0 19 -17 43
-60 84 -43 41 -60 65 -60 84 0 15 -8 30 -20 36 -12 7 -20 21 -20 38 0 19 -12
37 -40 62 -36 31 -40 40 -40 82 0 37 -4 50 -20 58 -13 7 -20 21 -20 40 0 19
-7 33 -20 40 -16 8 -20 21 -20 60 0 39 -4 52 -20 60 -16 8 -20 21 -20 60 0 39
-4 52 -20 60 -17 9 -20 21 -20 80 0 59 -3 71 -20 80 -18 9 -20 21 -20 100 0
79 -2 91 -20 100 -19 10 -20 21 -20 300 0 279 1 290 20 300 18 9 20 21 20 100
0 79 2 91 20 100 18 9 20 21 20 100 0 79 2 91 20 100 13 7 20 21 20 40 0 19 7
33 20 40 17 9 20 21 20 80 0 59 3 71 20 80 13 7 20 21 20 40 0 19 7 33 20 40
16 8 20 21 20 58 0 42 4 51 40 82 35 31 40 40 40 80 0 40 5 49 40 80 28 25 40
43 40 62 0 17 8 31 20 38 12 6 20 21 20 36 0 19 17 43 60 84 43 41 60 65 60
84 0 15 8 30 20 36 12 6 20 21 20 36 0 19 26 51 100 124 66 65 100 106 100
120 0 15 34 55 100 120 55 53 100 102 100 109 0 7 -20 11 -55 11 -44 0 -56 -4
-65 -20z M33920 14509 c0 -6 81 -91 180 -189 129 -129 180 -185 180 -202 0
-14 15 -36 40 -58 25 -22 40 -44 40 -59 0 -15 20 -43 60 -81 43 -41 60 -65 60
-84 0 -15 8 -30 20 -36 12 -7 20 -21 20 -38 0 -19 12 -37 40 -62 36 -31 40
-40 40 -82 0 -37 4 -50 20 -58 13 -7 20 -21 20 -40 0 -19 7 -33 20 -40 17 -9
20 -21 20 -80 0 -59 3 -71 20 -80 17 -9 20 -21 20 -80 0 -59 3 -71 20 -80 20
-10 20 -21 20 -480 0 -459 0 -470 -20 -480 -18 -10 -20 -21 -20 -136 0 -125 0
-126 -29 -155 l-30 -29 -1068 2 -1068 3 -3 112 c-2 100 -5 114 -22 123 -17 9
-20 21 -20 80 0 59 -3 71 -20 80 -13 7 -20 21 -20 40 0 19 -7 33 -20 40 -13 7
-20 21 -20 40 0 19 -7 33 -19 40 -12 6 -21 23 -23 43 -3 27 -7 32 -33 35 -19
3 -43 18 -66 43 -22 24 -45 39 -60 39 -15 0 -37 14 -59 40 l-35 40 -87 0 c-77
0 -89 2 -98 20 -11 20 -21 20 -1220 20 -1199 0 -1209 0 -1220 -20 -10 -19 -21
-20 -220 -20 -199 0 -210 -1 -220 -20 -7 -12 -21 -20 -38 -20 -19 0 -37 -12
-62 -40 -25 -28 -43 -40 -62 -40 -17 0 -31 -8 -38 -19 -6 -12 -23 -21 -43 -23
-28 -3 -33 -7 -37 -38 -4 -30 -9 -35 -34 -38 -36 -4 -126 -92 -126 -123 0 -13
23 -43 60 -79 43 -41 60 -65 60 -84 0 -15 8 -30 20 -36 12 -7 20 -21 20 -38 0
-19 12 -37 40 -62 24 -21 40 -44 40 -58 0 -31 131 -162 162 -162 14 0 37 -16
58 -40 31 -35 40 -40 80 -40 40 0 49 -5 80 -40 25 -28 43 -40 62 -40 17 0 31
-8 38 -20 7 -13 21 -20 40 -20 19 0 33 -7 40 -20 7 -13 21 -20 40 -20 19 0 33
-7 40 -20 7 -13 21 -20 40 -20 19 0 33 -7 40 -20 7 -13 21 -20 40 -20 19 0 33
-7 40 -20 7 -13 21 -20 40 -20 19 0 33 -7 40 -20 7 -13 21 -20 40 -20 19 0 33
-7 40 -20 7 -13 21 -20 40 -20 19 0 33 -7 40 -20 7 -13 21 -20 40 -20 19 0 33
-7 40 -20 7 -13 21 -20 40 -20 19 0 33 -7 40 -20 7 -13 21 -20 40 -20 19 0 33
-7 40 -20 7 -13 21 -20 40 -20 19 0 33 -7 40 -20 7 -13 21 -20 40 -20 19 0 33
-7 40 -20 7 -13 21 -20 40 -20 19 0 33 -7 40 -20 7 -13 21 -20 40 -20 19 0 33
-7 40 -20 7 -13 21 -20 40 -20 19 0 33 -7 40 -20 7 -13 21 -20 40 -20 19 0 33
-7 40 -20 7 -13 21 -20 40 -20 19 0 33 -7 40 -20 7 -13 21 -20 40 -20 19 0 33
-7 40 -20 7 -13 21 -20 40 -20 19 0 33 -7 40 -20 8 -16 21 -20 58 -20 42 0 51
-4 82 -40 31 -35 40 -40 80 -40 40 0 49 -5 80 -40 31 -35 40 -40 80 -40 40 0
49 -5 80 -40 31 -36 40 -40 82 -40 37 0 50 -4 58 -20 7 -13 21 -20 40 -20 19
0 33 -7 40 -20 7 -13 21 -20 40 -20 19 0 33 -7 40 -20 7 -13 21 -20 40 -20 19
0 33 -7 40 -20 8 -16 21 -20 58 -20 42 0 51 -4 82 -40 31 -36 40 -40 82 -40
37 0 50 -4 58 -20 7 -13 21 -20 40 -20 19 0 33 -7 40 -20 7 -13 21 -20 40 -20
19 0 33 -7 40 -20 7 -13 21 -20 40 -20 19 0 33 -7 40 -20 7 -13 21 -20 40 -20
19 0 33 -7 40 -20 7 -13 21 -20 40 -20 19 0 33 -7 40 -20 7 -13 21 -20 40 -20
19 0 33 -7 40 -20 7 -13 21 -20 40 -20 19 0 33 -7 40 -20 8 -16 21 -20 58 -20
42 0 51 -4 82 -40 31 -36 40 -40 82 -40 37 0 50 -4 58 -20 7 -13 21 -20 40
-20 19 0 33 -7 40 -20 8 -16 21 -20 60 -20 39 0 52 -4 60 -20 7 -13 21 -20 40
-20 19 0 33 -7 40 -20 7 -13 21 -20 40 -20 19 0 33 -7 40 -20 7 -13 21 -20 40
-20 19 0 33 -7 40 -21 9 -15 19 -19 43 -17 28 3 32 7 35 35 2 20 11 37 23 43
18 10 19 23 19 240 0 218 1 230 20 240 18 10 20 23 22 203 l3 192 1055 0 1055
0 3 -72 c2 -60 6 -75 22 -83 19 -10 20 -23 20 -260 0 -239 1 -250 20 -260 19
-10 20 -21 20 -180 0 -158 1 -170 20 -180 18 -10 20 -23 22 -163 l3 -152 2552
-3 c2540 -2 2552 -2 2563 -22 9 -17 21 -20 80 -20 59 0 71 -3 80 -20 9 -17 21
-20 80 -20 59 0 71 -3 80 -20 6 -12 21 -20 36 -20 18 0 49 -25 114 -90 87 -86
90 -91 90 -134 0 -35 5 -48 20 -56 13 -7 20 -21 20 -40 0 -19 7 -33 20 -40 19
-10 20 -21 20 -240 0 -219 -1 -230 -20 -240 -13 -7 -20 -21 -20 -40 0 -19 -7
-33 -20 -40 -15 -8 -20 -21 -20 -56 0 -42 -4 -49 -70 -114 -64 -65 -73 -70
-112 -70 -38 0 -47 -5 -78 -40 l-35 -40 -87 0 c-77 0 -89 -2 -98 -20 -11 -20
-23 -20 -1683 -22 l-1672 -3 -3 -32 c-2 -20 -11 -37 -23 -43 -12 -7 -19 -21
-19 -40 0 -19 -7 -33 -20 -40 -16 -8 -20 -21 -20 -60 0 -39 -4 -52 -20 -60
-13 -7 -20 -21 -20 -40 0 -19 -7 -33 -20 -40 -13 -7 -20 -21 -20 -40 0 -19 -7
-33 -20 -40 -13 -7 -20 -21 -20 -40 0 -19 -7 -33 -20 -40 -16 -8 -20 -21 -20
-60 0 -39 -4 -52 -20 -60 -13 -7 -20 -21 -20 -40 0 -19 -7 -33 -20 -40 -16 -8
-20 -21 -20 -60 0 -39 -4 -52 -20 -60 -13 -7 -20 -21 -20 -40 0 -19 -7 -33
-20 -40 -16 -8 -20 -21 -20 -58 0 -42 -4 -51 -40 -82 -36 -31 -40 -40 -40 -82
0 -37 -4 -50 -20 -58 -13 -7 -20 -21 -20 -40 0 -19 -7 -33 -20 -40 -16 -8 -20
-21 -20 -60 0 -39 -4 -52 -20 -60 -13 -7 -20 -21 -20 -40 0 -19 -7 -33 -20
-40 -16 -8 -20 -21 -20 -60 0 -39 -4 -52 -20 -60 -13 -7 -20 -21 -20 -40 0
-19 -7 -33 -21 -40 -17 -10 -20 -19 -17 -63 l3 -52 2652 -3 c2644 -2 2652 -2
2663 18 9 18 21 20 100 20 79 0 91 2 100 20 10 18 21 20 120 20 99 0 110 2
120 20 8 16 21 20 60 20 39 0 52 4 60 20 8 16 21 20 60 20 39 0 52 4 60 20 7
13 21 20 40 20 19 0 33 7 40 20 7 13 21 20 40 20 19 0 33 7 40 20 7 13 21 20
40 20 19 0 33 7 40 20 7 12 21 20 38 20 19 0 37 12 62 40 21 24 44 40 58 40
30 0 282 251 282 281 0 13 24 44 60 79 55 53 60 61 60 101 0 39 5 48 40 79 36
31 40 40 40 82 0 37 4 50 20 58 16 8 20 21 20 60 0 39 4 52 20 60 17 9 20 21
20 80 0 59 3 71 20 80 17 9 20 21 20 80 0 59 3 71 20 80 18 10 20 21 20 140 0
119 2 130 20 140 19 10 20 21 20 221 0 202 1 211 20 216 19 5 20 14 20 283 0
269 -1 278 -20 283 -19 5 -20 14 -20 216 0 200 -1 211 -20 221 -19 10 -20 21
-20 180 0 159 -1 170 -20 180 -17 9 -20 21 -20 80 0 59 -3 71 -20 80 -16 8
-20 21 -20 60 0 39 -4 52 -20 60 -16 8 -20 21 -20 60 0 39 -4 52 -20 60 -13 7
-20 21 -20 40 0 19 -7 33 -20 40 -13 7 -20 21 -20 40 0 19 -7 33 -20 40 -13 7
-20 21 -20 40 0 19 -7 33 -20 40 -13 7 -20 21 -20 40 0 19 -7 33 -20 40 -12 6
-20 21 -20 36 0 35 -246 281 -287 286 -24 2 -29 8 -33 38 -4 31 -9 35 -37 38
-20 2 -37 11 -43 23 -7 12 -21 19 -40 19 -19 0 -33 7 -40 20 -7 13 -21 20 -40
20 -19 0 -33 7 -40 20 -7 13 -21 20 -40 20 -19 0 -33 7 -40 20 -8 16 -21 20
-60 20 -39 0 -52 4 -60 20 -8 16 -21 20 -60 20 -39 0 -52 4 -60 20 -9 18 -21
20 -100 20 -79 0 -91 2 -100 20 -9 18 -21 20 -100 20 -79 0 -91 2 -100 20 -10
19 -21 20 -280 20 -259 0 -270 1 -280 20 -10 19 -21 20 -240 20 -219 0 -230 1
-240 20 -10 20 -21 20 -460 20 -439 0 -450 0 -460 20 -10 19 -21 20 -340 20
-319 0 -330 1 -340 20 -10 20 -21 20 -500 20 -479 0 -490 0 -500 20 -10 19
-21 20 -340 20 -319 0 -330 1 -340 20 -10 19 -21 20 -320 20 -299 0 -310 1
-320 20 -10 19 -21 20 -160 20 -139 0 -150 1 -160 20 -10 18 -21 20 -138 20
l-127 0 -35 40 c-21 24 -44 40 -58 40 -30 0 -202 171 -202 201 0 13 -23 44
-60 79 -38 37 -60 66 -60 80 0 14 -22 43 -60 80 -36 35 -60 66 -60 79 0 33
329 358 367 363 24 2 29 8 33 38 4 30 9 35 35 38 19 3 43 18 66 43 24 26 44
39 62 39 16 0 30 8 37 20 7 13 21 20 40 20 19 0 33 7 40 20 11 20 23 20 3323
22 l3312 3 3 32 c2 20 11 37 23 43 26 15 26 66 -1 80 -19 10 -20 21 -20 160 0
139 -1 150 -20 160 -18 10 -20 21 -20 120 0 99 -2 110 -20 120 -13 7 -20 21
-20 40 0 19 -7 33 -20 40 -16 8 -20 21 -20 60 0 39 -4 52 -20 60 -13 7 -20 21
-20 40 0 19 -7 33 -20 40 -12 7 -20 21 -20 38 0 19 -12 37 -40 62 -25 22 -40
44 -40 59 0 15 -20 42 -59 80 -41 40 -60 66 -63 87 -2 24 -8 30 -32 32 -21 3
-55 30 -127 103 -73 74 -104 99 -123 99 -15 0 -30 8 -36 20 -7 12 -21 20 -38
20 -19 0 -37 12 -62 40 -31 36 -40 40 -82 40 -37 0 -50 4 -58 20 -7 13 -21 20
-40 20 -19 0 -33 7 -40 20 -9 18 -21 20 -100 20 -79 0 -91 2 -100 20 -9 17
-21 20 -80 20 -59 0 -71 3 -80 20 -11 20 -21 20 -4065 20 -2915 0 -4055 -3
-4055 -11z M28160 9860 c-8 -16 -21 -20 -60 -20 -39 0 -52 -4 -60 -20 -7 -13
-21 -20 -40 -20 -19 0 -33 -7 -40 -20 -6 -12 -21 -20 -36 -20 -33 0 -124 -90
-124 -122 0 -14 -15 -36 -40 -58 -36 -31 -40 -40 -40 -82 0 -37 -4 -50 -20
-58 -16 -8 -20 -21 -20 -60 0 -39 -4 -52 -20 -60 -19 -10 -20 -21 -20 -200 0
-179 -1 -190 -20 -200 -18 -10 -20 -21 -20 -120 0 -99 2 -110 20 -120 18 -10
20 -21 20 -120 0 -99 2 -110 20 -120 13 -7 20 -21 20 -40 0 -19 7 -33 20 -40
13 -7 20 -21 20 -40 0 -19 7 -33 20 -40 12 -6 20 -21 20 -36 0 -19 17 -43 59
-83 41 -40 60 -66 63 -87 3 -28 6 -29 55 -32 40 -2 55 -8 63 -23 7 -12 21 -19
40 -19 19 0 33 -7 40 -20 10 -20 21 -20 440 -20 419 0 430 0 440 -20 11 -20
21 -20 1360 -20 1336 0 1349 0 1360 20 10 19 23 20 383 22 l372 3 3 48 c3 41
-1 51 -27 77 -24 25 -38 30 -75 30 -35 0 -48 5 -56 20 -7 13 -21 20 -40 20
-19 0 -33 7 -40 20 -7 13 -21 20 -40 20 -19 0 -33 7 -40 20 -7 13 -21 20 -40
20 -19 0 -33 7 -40 20 -7 13 -21 20 -40 20 -19 0 -33 7 -40 20 -7 13 -21 20
-40 20 -19 0 -33 7 -40 20 -8 16 -21 20 -58 20 -42 0 -51 4 -82 40 -31 36 -40
40 -82 40 -37 0 -50 4 -58 20 -7 13 -21 20 -40 20 -19 0 -33 7 -40 20 -8 16
-21 20 -60 20 -39 0 -52 4 -60 20 -7 13 -21 20 -40 20 -19 0 -33 7 -40 20 -7
13 -21 20 -40 20 -19 0 -33 7 -40 20 -7 13 -21 20 -40 20 -19 0 -33 7 -40 20
-7 13 -21 20 -40 20 -19 0 -33 7 -40 20 -7 13 -21 20 -40 20 -19 0 -33 7 -40
20 -8 16 -21 20 -58 20 -42 0 -51 4 -82 40 -31 36 -40 40 -82 40 -37 0 -50 4
-58 20 -7 13 -21 20 -40 20 -19 0 -33 7 -40 20 -8 16 -21 20 -60 20 -39 0 -52
4 -60 20 -7 13 -21 20 -40 20 -19 0 -33 7 -40 20 -7 13 -21 20 -40 20 -19 0
-33 7 -40 20 -7 13 -21 20 -40 20 -19 0 -33 7 -40 20 -8 16 -21 20 -58 20 -42
0 -51 4 -82 40 -31 36 -40 40 -82 40 -37 0 -50 4 -58 20 -7 13 -21 20 -40 20
-19 0 -33 7 -40 20 -8 16 -21 20 -60 20 -39 0 -52 4 -60 20 -7 13 -21 20 -40
20 -19 0 -33 7 -40 20 -7 13 -21 20 -40 20 -19 0 -33 7 -40 20 -7 13 -21 20
-40 20 -19 0 -33 7 -40 20 -8 16 -21 20 -58 20 -42 0 -51 4 -82 40 -31 36 -40
40 -82 40 -37 0 -50 4 -58 20 -8 16 -21 20 -60 20 -39 0 -52 4 -60 20 -7 13
-21 20 -40 20 -19 0 -33 7 -40 20 -7 13 -21 20 -40 20 -19 0 -33 7 -40 20 -8
16 -21 20 -58 20 -42 0 -51 4 -82 40 -31 36 -40 40 -82 40 -37 0 -50 4 -58 20
-8 16 -21 20 -60 20 -39 0 -52 4 -60 20 -7 13 -21 20 -40 20 -19 0 -33 7 -40
20 -9 17 -21 20 -80 20 -59 0 -71 3 -80 20 -9 18 -21 20 -100 20 -79 0 -91 -2
-100 -20z M34800 6780 c-41 -44 -62 -59 -82 -60 -17 0 -31 -8 -38 -20 -7 -12
-21 -20 -37 -20 -18 0 -38 -13 -62 -39 -32 -35 -43 -40 -86 -43 -49 -3 -50 -4
-55 -38 -4 -31 -9 -35 -37 -38 -20 -2 -37 -11 -43 -23 -7 -12 -21 -19 -40 -19
-19 0 -33 -7 -40 -20 -7 -12 -21 -20 -38 -20 -19 0 -37 -12 -62 -40 -23 -26
-44 -40 -60 -40 -16 0 -37 -14 -60 -40 -23 -26 -44 -40 -60 -40 -16 0 -37 -14
-60 -40 -23 -26 -44 -40 -60 -40 -28 -1 -86 -53 -75 -69 9 -15 2461 -15 2470
0 11 17 -47 68 -77 69 -17 0 -31 8 -38 20 -7 13 -21 20 -40 20 -19 0 -33 7
-40 20 -7 12 -21 20 -38 20 -19 0 -37 12 -62 40 -31 35 -40 40 -80 40 -40 0
-49 5 -80 40 -31 35 -40 40 -80 40 -40 0 -49 5 -80 40 -25 28 -43 40 -62 40
-17 0 -31 8 -38 20 -7 13 -21 20 -40 20 -19 0 -33 7 -40 20 -7 13 -21 20 -40
20 -19 0 -33 7 -40 20 -7 13 -21 20 -40 20 -19 0 -33 7 -40 20 -7 13 -21 20
-40 20 -19 0 -33 7 -40 20 -7 13 -21 20 -40 20 -19 0 -33 7 -40 20 -7 13 -21
20 -40 20 -19 0 -33 7 -40 20 -7 13 -21 20 -40 20 -19 0 -33 7 -40 20 -9 17
-21 20 -78 20 l-67 -1 -55 -59z"/></g></g>
    <path transform="translate(395.869,342.000) scale(0.080282,-0.080282)" d="M370 -5Q300 -5 239.5 25.5Q179 56 134.0 107.5Q89 159 64.0 223.5Q39 288 39 357Q39 429 64.0 493.5Q89 558 133.5 608.0Q178 658 238.5 686.5Q299 715 370 715Q473 715 540.0 672.0Q607 629 641 560L572 512Q541 574 487.0 604.0Q433 634 368 634Q314 634 270.0 611.0Q226 588 194.5 548.5Q163 509 146.5 459.0Q130 409 130 355Q130 298 148.5 247.5Q167 197 201.0 158.5Q235 120 280.0 98.0Q325 76 377 76Q438 76 493 107Q542 135 586 188V286H433V354H662V0H586V96Q494 -5 370 -5Z"/>
    <path transform="translate(556.734,342.000) scale(0.080282,-0.080282)" d="M85 0V710H389Q436 710 475.0 690.5Q514 671 543.0 638.5Q572 606 588.0 565.5Q604 525 604 483Q604 434 585.5 390.0Q567 346 533.5 315.0Q500 284 455 272L627 0H525L363 255H175V0ZM175 335H390Q427 335 454.5 355.5Q482 376 497.5 410.0Q513 444 513 483Q513 523 495.0 556.5Q477 590 448.0 610.0Q419 630 384 630H175Z"/>
    <path transform="translate(718.482,342.000) scale(0.080282,-0.080282)" d="M373 -5Q298 -5 237.0 25.0Q176 55 131.5 106.5Q87 158 63.0 222.5Q39 287 39 355Q39 426 64.5 490.5Q90 555 135.5 605.5Q181 656 242.0 685.5Q303 715 375 715Q450 715 511.0 684.0Q572 653 616.0 601.0Q660 549 684.0 485.0Q708 421 708 354Q708 283 683.0 218.5Q658 154 612.5 103.5Q567 53 506.0 24.0Q445 -5 373 -5ZM130 355Q130 301 147.5 250.5Q165 200 197.0 161.0Q229 122 274.0 99.0Q319 76 374 76Q431 76 476.0 100.0Q521 124 552.5 164.0Q584 204 600.5 254.0Q617 304 617 355Q617 409 599.5 459.0Q582 509 549.5 548.5Q517 588 472.5 610.5Q428 633 374 633Q317 633 272.0 609.5Q227 586 195.5 546.0Q164 506 147.0 456.5Q130 407 130 355Z"/>
    <path transform="translate(883.842,342.000) scale(0.080282,-0.080282)" d="M378 -5Q293 -5 235.0 24.5Q177 54 142.0 104.5Q107 155 91.0 219.0Q75 283 75 351V710H165V351Q165 299 175.5 249.5Q186 200 210.0 161.0Q234 122 275.0 99.0Q316 76 377 76Q439 76 480.0 99.5Q521 123 545.0 162.5Q569 202 579.5 251.0Q590 300 590 351V710H680V351Q680 279 663.5 214.5Q647 150 611.0 101.0Q575 52 517.5 23.5Q460 -5 378 -5Z"/>
    <path transform="translate(1046.152,342.000) scale(0.080282,-0.080282)" d="M85 0V710H381Q428 710 467.0 690.5Q506 671 535.0 638.5Q564 606 580.0 565.5Q596 525 596 483Q596 425 570.0 372.5Q544 320 497.0 287.5Q450 255 387 255H175V0ZM175 335H382Q419 335 446.5 355.0Q474 375 489.5 409.0Q505 443 505 483Q505 525 487.0 558.5Q469 592 440.0 611.0Q411 630 376 630H175Z"/>
  </g>
</svg>